# Blender v2.82 (sub 7) OBJ File: 'key.blend'
# www.blender.org
mtllib key.mtl
o key
v 0.000000 0.000000 -0.200000
v -0.039018 0.000000 -0.196157
v -0.076537 0.000000 -0.184776
v -0.111114 0.000000 -0.166294
v -0.141421 0.000000 -0.141421
v -0.166294 0.000000 -0.111114
v -0.184776 0.000000 -0.076537
v -0.196157 0.000000 -0.039018
v -0.200000 0.000000 -0.000000
v -0.196157 0.000000 0.039018
v -0.184776 0.000000 0.076537
v -0.166294 0.000000 0.111114
v -0.141421 0.000000 0.141421
v -0.111114 0.000000 0.166294
v -0.076537 0.000000 0.184776
v -0.039018 0.000000 0.196157
v 0.000000 0.000000 0.200000
v 0.039018 0.000000 0.196157
v 0.076537 0.000000 0.184776
v 0.111114 0.000000 0.166294
v 0.141421 0.000000 0.141421
v 0.166294 0.000000 0.111114
v 0.184776 0.000000 0.076537
v 0.196157 0.000000 0.039018
v 0.200000 0.000000 -0.000000
v 0.196157 0.000000 -0.039018
v 0.184776 0.000000 -0.076537
v 0.166294 0.000000 -0.111114
v 0.141421 0.000000 -0.141422
v 0.111114 0.000000 -0.166294
v 0.076536 0.000000 -0.184776
v 0.039018 0.000000 -0.196157
v 0.088381 -0.001273 -0.050982
v 0.079017 -0.001273 -0.050060
v 0.070013 -0.001273 -0.047328
v 0.061714 -0.001273 -0.042893
v 0.054440 -0.001273 -0.036923
v 0.048471 -0.001273 -0.029649
v 0.044035 -0.001273 -0.021351
v 0.041304 -0.001273 -0.012346
v 0.040381 -0.001273 -0.002982
v 0.041304 -0.001273 0.006382
v 0.044035 -0.001273 0.015387
v 0.048471 -0.001273 0.023685
v 0.054440 -0.001273 0.030959
v 0.061714 -0.001273 0.036928
v 0.070013 -0.001273 0.041364
v 0.079017 -0.001273 0.044096
v 0.088381 -0.001273 0.045018
v 0.097746 -0.001273 0.044096
v 0.106750 -0.001273 0.041364
v 0.115049 -0.001273 0.036928
v 0.122323 -0.001273 0.030959
v 0.128292 -0.001273 0.023685
v 0.132728 -0.001273 0.015387
v 0.135459 -0.001273 0.006382
v 0.136381 -0.001273 -0.002982
v 0.135459 -0.001273 -0.012346
v 0.132728 -0.001273 -0.021351
v 0.128292 -0.001273 -0.029649
v 0.122323 -0.001273 -0.036923
v 0.115049 -0.001273 -0.042893
v 0.106750 -0.001273 -0.047328
v 0.097746 -0.001273 -0.050060
v -0.662689 -0.004584 -0.076025
v -0.780468 -0.004861 0.011819
v -0.738214 -0.004164 0.077407
v -0.388771 -0.001957 -0.076318
v -0.038736 -0.052793 -0.196085
v -0.380890 -0.001881 -0.076327
v -0.304858 -0.001152 -0.076408
v -0.447486 -0.002520 -0.076255
v -0.450853 -0.002552 -0.076252
v -0.518591 -0.003202 -0.076179
v -0.524740 -0.003261 -0.076172
v -0.589733 -0.003884 -0.076103
v -0.352362 -0.001292 -0.015906
v -0.420097 -0.001861 -0.016816
v -0.494152 -0.002486 -0.015793
v -0.563130 -0.003067 -0.012265
v 0.000282 -0.052793 -0.199928
v -0.076255 -0.052793 -0.184703
v -0.110832 -0.052793 -0.166222
v -0.141139 -0.052793 -0.141349
v -0.166012 -0.052793 -0.111042
v -0.184494 -0.052793 -0.076464
v -0.195875 -0.052793 -0.038946
v -0.199718 -0.052793 0.000072
v -0.195875 -0.052793 0.039090
v -0.184494 -0.052793 0.076609
v -0.166012 -0.052793 0.111186
v -0.141139 -0.052793 0.141494
v -0.110832 -0.052793 0.166366
v -0.076255 -0.052793 0.184848
v -0.038736 -0.052793 0.196229
v 0.000282 -0.052793 0.200072
v 0.039300 -0.052793 0.196229
v 0.076819 -0.052793 0.184848
v 0.111396 -0.052793 0.166366
v 0.141703 -0.052793 0.141494
v 0.166576 -0.052793 0.111186
v 0.185058 -0.052793 0.076609
v 0.196439 -0.052793 0.039090
v 0.200282 -0.052793 0.000072
v 0.196439 -0.052793 -0.038946
v 0.185058 -0.052793 -0.076465
v 0.166576 -0.052793 -0.111042
v 0.141703 -0.052793 -0.141349
v 0.111396 -0.052793 -0.166222
v 0.076818 -0.052793 -0.184704
v 0.039300 -0.052793 -0.196085
v 0.079299 -0.054066 -0.049987
v 0.088663 -0.054066 -0.050910
v 0.070295 -0.054066 -0.047256
v 0.061996 -0.054066 -0.042820
v 0.054722 -0.054066 -0.036851
v 0.048753 -0.054066 -0.029577
v 0.044317 -0.054066 -0.021278
v 0.041586 -0.054066 -0.012274
v 0.040663 -0.054066 -0.002910
v 0.041586 -0.054066 0.006455
v 0.044317 -0.054066 0.015459
v 0.048753 -0.054066 0.023758
v 0.054722 -0.054066 0.031031
v 0.061996 -0.054066 0.037001
v 0.070295 -0.054066 0.041437
v 0.079299 -0.054066 0.044168
v 0.088663 -0.054066 0.045090
v 0.098028 -0.054066 0.044168
v 0.107032 -0.054066 0.041437
v 0.115331 -0.054066 0.037001
v 0.122605 -0.054066 0.031031
v 0.128574 -0.054066 0.023758
v 0.133010 -0.054066 0.015459
v 0.135741 -0.054066 0.006455
v 0.136663 -0.054066 -0.002910
v 0.135741 -0.054066 -0.012274
v 0.133010 -0.054066 -0.021279
v 0.128574 -0.054066 -0.029577
v 0.122605 -0.054066 -0.036851
v 0.115331 -0.054066 -0.042820
v 0.107032 -0.054066 -0.047256
v 0.098028 -0.054066 -0.049987
v -0.380608 -0.054674 -0.076254
v -0.388489 -0.054750 -0.076246
v -0.589451 -0.056677 -0.076030
v -0.662407 -0.057377 -0.075952
v -0.304576 -0.053945 -0.076336
v -0.352080 -0.054085 -0.015834
v -0.780186 -0.057655 0.011891
v -0.737932 -0.056957 0.077479
v -0.447204 -0.055313 -0.076183
v -0.450571 -0.055345 -0.076179
v -0.518309 -0.055995 -0.076107
v -0.524458 -0.056054 -0.076100
v -0.419815 -0.054654 -0.016744
v -0.493870 -0.055280 -0.015721
v -0.562848 -0.055860 -0.012193
v -0.745591 -0.008503 0.059014
v -0.756734 -0.008744 0.041717
v -0.257704 -0.007060 0.055828
v -0.257051 -0.006961 0.039588
v -0.240797 -0.000371 0.031630
v -0.765916 -0.004621 0.034407
v -0.242057 -0.000449 0.062987
v -0.745052 -0.004277 0.066793
vt 0.000000 0.000000
vt 0.000000 0.000000
vt 0.000000 0.000000
vt 0.000000 0.000000
vt 0.000000 0.000000
vt 0.000000 0.000000
vt 0.000000 0.000000
vt 0.000000 0.000000
vt 0.000000 0.000000
vt 0.000000 0.000000
vt 0.000000 0.000000
vt 0.000000 0.000000
vt 0.000000 0.000000
vt 0.000000 0.000000
vt 0.000000 0.000000
vt 0.000000 0.000000
vt 0.000000 0.000000
vt 0.000000 0.000000
vt 0.000000 0.000000
vt 0.000000 0.000000
vt 0.000000 0.000000
vt 0.000000 0.000000
vt 0.000000 0.000000
vt 0.000000 0.000000
vt 0.000000 0.000000
vt 0.000000 0.000000
vt 0.000000 0.000000
vt 0.000000 0.000000
vt 0.000000 0.000000
vt 0.000000 0.000000
vt 0.000000 0.000000
vt 0.000000 0.000000
vt 0.000000 0.000000
vt 0.000000 0.000000
vt 0.000000 0.000000
vt 0.000000 0.000000
vt 0.000000 0.000000
vt 0.000000 0.000000
vt 0.000000 0.000000
vt 0.000000 0.000000
vt 0.000000 0.000000
vt 0.000000 0.000000
vt 0.000000 0.000000
vt 0.000000 0.000000
vt 0.000000 0.000000
vt 0.000000 0.000000
vt 0.000000 0.000000
vt 0.000000 0.000000
vt 0.000000 0.000000
vt 0.000000 0.000000
vt 0.000000 0.000000
vt 0.000000 0.000000
vt 0.000000 0.000000
vt 0.000000 0.000000
vt 0.000000 0.000000
vt 0.000000 0.000000
vt 0.000000 0.000000
vt 0.000000 0.000000
vt 0.000000 0.000000
vt 0.000000 0.000000
vt 0.000000 0.000000
vt 0.000000 0.000000
vt 0.000000 0.000000
vt 0.000000 0.000000
vt 0.000000 0.000000
vt 0.000000 0.000000
vt 0.000000 0.000000
vt 0.000000 0.000000
vt 0.000000 0.000000
vt 0.000000 0.000000
vt 0.000000 0.000000
vt 0.000000 0.000000
vt 0.000000 0.000000
vt 0.000000 0.000000
vt 0.000000 0.000000
vt 0.000000 0.000000
vt 0.000000 0.000000
vt 0.000000 0.000000
vt 0.000000 0.000000
vt 0.000000 0.000000
vt 0.000000 0.000000
vt 0.000000 0.000000
vt 0.000000 0.000000
vt 0.000000 0.000000
vt 0.000000 0.000000
vt 0.000000 0.000000
vt 0.000000 0.000000
vt 0.000000 0.000000
vt 0.000000 0.000000
vt 0.000000 0.000000
vt 0.000000 0.000000
vt 0.000000 0.000000
vt 0.000000 0.000000
vt 0.000000 0.000000
vt 0.000000 0.000000
vt 0.000000 0.000000
vt 0.000000 0.000000
vt 0.000000 0.000000
vt 0.000000 0.000000
vt 0.000000 0.000000
vt 0.000000 0.000000
vt 0.000000 0.000000
vt 0.000000 0.000000
vt 0.000000 0.000000
vt 0.000000 0.000000
vt 0.000000 0.000000
vt 0.000000 0.000000
vt 0.000000 0.000000
vt 0.000000 0.000000
vt 0.000000 0.000000
vt 0.000000 0.000000
vt 0.000000 0.000000
vt 0.000000 0.000000
vt 0.000000 0.000000
vt 0.000000 0.000000
vt 0.000000 0.000000
vt 0.000000 0.000000
vt 0.000000 0.000000
vt 0.000000 0.000000
vt 0.000000 0.000000
vt 0.000000 0.000000
vt 0.000000 0.000000
vt 0.000000 0.000000
vt 0.000000 0.000000
vt 0.000000 0.000000
vt 0.000000 0.000000
vt 0.000000 0.000000
vt 0.000000 0.000000
vt 0.000000 0.000000
vt 0.000000 0.000000
vt 0.000000 0.000000
vt 0.000000 0.000000
vt 0.000000 0.000000
vt 0.000000 0.000000
vt 0.000000 0.000000
vt 0.000000 0.000000
vt 0.000000 0.000000
vt 0.000000 0.000000
vt 0.000000 0.000000
vt 0.000000 0.000000
vt 0.000000 0.000000
vt 0.000000 0.000000
vt 0.000000 0.000000
vt 0.000000 0.000000
vt 0.000000 0.000000
vt 0.000000 0.000000
vt 0.000000 0.000000
vt 0.000000 0.000000
vt 0.000000 0.000000
vt 0.000000 0.000000
vt 0.000000 0.000000
vt 0.000000 0.000000
vt 0.000000 0.000000
vt 0.000000 0.000000
vt 0.000000 0.000000
vt 0.000000 0.000000
vt 0.000000 0.000000
vt 0.000000 0.000000
vt 0.000000 0.000000
vt 0.000000 0.000000
vt 0.000000 0.000000
vt 0.000000 0.000000
vt 0.000000 0.000000
vt 0.000000 0.000000
vt 0.000000 0.000000
vt 0.000000 0.000000
vn 0.0013 1.0000 0.0077
vn 0.0017 1.0000 0.0074
vn 0.0028 1.0000 0.0063
vn 0.0025 1.0000 0.0066
vn 0.0036 1.0000 0.0052
vn 0.0035 1.0000 0.0055
vn 0.0043 1.0000 0.0041
vn 0.0042 1.0000 0.0044
vn 0.0048 1.0000 0.0031
vn 0.0047 1.0000 0.0032
vn 0.0006 1.0000 0.0005
vn 0.0050 1.0000 0.0022
vn -0.0028 1.0000 -0.0005
vn 0.0052 1.0000 0.0011
vn 0.0052 1.0000 -0.0011
vn -0.0021 1.0000 0.0005
vn 0.0010 1.0000 -0.0009
vn 0.0050 1.0000 -0.0021
vn 0.0047 1.0000 -0.0031
vn 0.0046 1.0000 -0.0032
vn 0.0042 1.0000 -0.0041
vn 0.0041 1.0000 -0.0043
vn 0.0036 1.0000 -0.0051
vn 0.0034 1.0000 -0.0053
vn 0.0027 1.0000 -0.0061
vn 0.0024 1.0000 -0.0064
vn 0.0016 1.0000 -0.0071
vn 0.0012 1.0000 -0.0074
vn 0.0002 1.0000 -0.0081
vn -0.0003 1.0000 -0.0084
vn -0.0015 1.0000 -0.0089
vn -0.0022 1.0000 -0.0092
vn -0.0036 0.9999 -0.0096
vn -0.0046 0.9999 -0.0098
vn -0.0062 0.9999 -0.0100
vn -0.0074 0.9999 -0.0101
vn -0.0092 0.9999 -0.0099
vn -0.0105 0.9999 -0.0097
vn -0.0126 0.9999 -0.0091
vn -0.0139 0.9999 -0.0085
vn -0.0160 0.9998 -0.0072
vn -0.0169 0.9998 -0.0064
vn -0.0188 0.9998 -0.0041
vn -0.0191 0.9998 -0.0034
vn -0.0200 0.9998 -0.0001
vn -0.0200 0.9998 0.0001
vn -0.0192 0.9998 0.0041
vn -0.0194 0.9998 0.0036
vn -0.0166 0.9998 0.0074
vn -0.0174 0.9998 0.0066
vn -0.0132 0.9999 0.0095
vn -0.0144 0.9999 0.0089
vn -0.0097 0.9999 0.0104
vn -0.0110 0.9999 0.0102
vn -0.0065 0.9999 0.0105
vn -0.0077 0.9999 0.0106
vn -0.0038 0.9999 0.0101
vn -0.0048 0.9999 0.0103
vn -0.0015 1.0000 0.0093
vn -0.0023 1.0000 0.0096
vn 0.0003 1.0000 0.0084
vn -0.0003 1.0000 0.0087
vn -0.0023 1.0000 -0.0003
vn 0.0053 1.0000 0.0000
vn -0.0033 1.0000 -0.0032
vn -0.0084 1.0000 -0.0018
vn -0.0084 1.0000 -0.0025
vn -0.0085 1.0000 0.0011
vn -0.0095 0.9999 -0.0085
vn -0.0087 1.0000 -0.0048
vn -0.0096 0.9999 -0.0088
vn -0.0085 1.0000 -0.0031
vn -0.0092 0.9999 -0.0081
vn -0.0096 0.9999 -0.0080
vn -0.0091 0.9999 -0.0069
vn -0.0096 0.9999 -0.0067
vn -0.0086 1.0000 -0.0034
vn -0.0090 0.9999 -0.0056
vn -0.0096 0.9999 -0.0052
vn -0.0013 -1.0000 -0.0077
vn -0.0025 -1.0000 -0.0066
vn -0.0028 -1.0000 -0.0063
vn -0.0017 -1.0000 -0.0074
vn -0.0035 -1.0000 -0.0055
vn -0.0036 -1.0000 -0.0052
vn -0.0042 -1.0000 -0.0044
vn -0.0043 -1.0000 -0.0041
vn -0.0047 -1.0000 -0.0032
vn -0.0048 -1.0000 -0.0031
vn -0.0050 -1.0000 -0.0022
vn -0.0006 -1.0000 -0.0005
vn -0.0052 -1.0000 -0.0011
vn 0.0028 -1.0000 0.0005
vn 0.0081 -1.0000 0.0042
vn 0.0084 -1.0000 0.0020
vn -0.0009 -1.0000 0.0010
vn -0.0052 -1.0000 0.0011
vn -0.0050 -1.0000 0.0021
vn 0.0023 -1.0000 -0.0007
vn -0.0046 -1.0000 0.0032
vn -0.0047 -1.0000 0.0031
vn -0.0041 -1.0000 0.0043
vn -0.0042 -1.0000 0.0041
vn -0.0034 -1.0000 0.0053
vn -0.0036 -1.0000 0.0051
vn -0.0024 -1.0000 0.0064
vn -0.0027 -1.0000 0.0061
vn -0.0012 -1.0000 0.0074
vn -0.0016 -1.0000 0.0071
vn 0.0003 -1.0000 0.0084
vn -0.0002 -1.0000 0.0081
vn 0.0022 -1.0000 0.0092
vn 0.0015 -1.0000 0.0089
vn 0.0046 -0.9999 0.0098
vn 0.0036 -0.9999 0.0096
vn 0.0074 -0.9999 0.0101
vn 0.0062 -0.9999 0.0100
vn 0.0105 -0.9999 0.0097
vn 0.0092 -0.9999 0.0099
vn 0.0139 -0.9999 0.0085
vn 0.0126 -0.9999 0.0091
vn 0.0169 -0.9998 0.0064
vn 0.0160 -0.9998 0.0072
vn 0.0191 -0.9998 0.0034
vn 0.0188 -0.9998 0.0041
vn 0.0200 -0.9998 -0.0001
vn 0.0200 -0.9998 0.0001
vn 0.0194 -0.9998 -0.0036
vn 0.0192 -0.9998 -0.0041
vn 0.0174 -0.9998 -0.0066
vn 0.0166 -0.9998 -0.0074
vn 0.0144 -0.9999 -0.0089
vn 0.0132 -0.9999 -0.0095
vn 0.0110 -0.9999 -0.0102
vn 0.0097 -0.9999 -0.0104
vn 0.0077 -0.9999 -0.0106
vn 0.0065 -0.9999 -0.0105
vn 0.0048 -0.9999 -0.0103
vn 0.0038 -0.9999 -0.0101
vn 0.0023 -1.0000 -0.0096
vn 0.0015 -1.0000 -0.0093
vn 0.0003 -1.0000 -0.0087
vn -0.0003 -1.0000 -0.0084
vn 0.0023 -1.0000 0.0003
vn -0.0053 -1.0000 -0.0000
vn 0.0084 -1.0000 0.0013
vn 0.0081 -1.0000 0.0058
vn 0.0069 -1.0000 0.0062
vn 0.0095 -0.9999 0.0077
vn 0.0096 -0.9999 0.0088
vn 0.0091 -0.9999 0.0064
vn 0.0092 -0.9999 0.0081
vn 0.0096 -0.9999 0.0080
vn 0.0091 -0.9999 0.0069
vn 0.0096 -0.9999 0.0067
vn 0.0086 -1.0000 0.0034
vn 0.0090 -0.9999 0.0056
vn 0.0096 -0.9999 0.0052
vn -0.1948 0.0003 0.9809
vn 0.0003 0.0014 1.0000
vn -0.0003 0.0014 1.0000
vn -0.1954 0.0003 0.9807
vn 0.8315 0.0052 0.5555
vn 0.9239 0.0055 0.3826
vn 0.9238 0.0055 0.3827
vn 0.8314 0.0052 0.5557
vn -0.7073 -0.0028 0.7069
vn -0.8316 -0.0037 0.5554
vn -0.8313 -0.0037 0.5558
vn -0.7069 -0.0028 0.7073
vn 0.9808 0.0055 0.1951
vn -0.5558 -0.0018 0.8313
vn -0.5553 -0.0018 0.8316
vn 1.0000 0.0053 0.0001
vn 1.0000 0.0053 -0.0001
vn -0.3830 -0.0008 0.9237
vn -0.3824 -0.0008 0.9240
vn 0.9808 0.0050 -0.1949
vn 0.9807 0.0050 -0.1952
vn 0.9239 0.0044 -0.3825
vn 0.9238 0.0044 -0.3829
vn 0.8316 0.0037 -0.5554
vn 0.8313 0.0037 -0.5558
vn 0.1948 0.0024 0.9808
vn 0.1954 0.0024 0.9807
vn -0.0011 -0.0014 -1.0000
vn 0.7073 0.0028 -0.7069
vn 0.7069 0.0028 -0.7073
vn 0.3824 0.0033 0.9240
vn 0.3829 0.0033 0.9238
vn 0.5558 0.0018 -0.8313
vn 0.5553 0.0018 -0.8316
vn 0.5554 0.0041 0.8316
vn 0.5558 0.0041 0.8313
vn -0.5978 -0.0043 -0.8016
vn 0.3830 0.0008 -0.9237
vn 0.3824 0.0008 -0.9240
vn 0.7070 0.0047 0.7072
vn 0.7072 0.0047 0.7070
vn -0.8406 -0.0037 0.5416
vn 0.1954 -0.0003 -0.9807
vn 0.1948 -0.0003 -0.9809
vn 0.0003 -0.0014 -1.0000
vn -0.0003 -0.0014 -1.0000
vn -0.1948 -0.0024 -0.9808
vn -0.1954 -0.0024 -0.9807
vn -0.3824 -0.0033 -0.9240
vn -0.3829 -0.0033 -0.9238
vn -0.5554 -0.0041 -0.8316
vn -0.5558 -0.0041 -0.8313
vn -0.7070 -0.0047 -0.7072
vn -0.7072 -0.0047 -0.7070
vn -0.8314 -0.0052 -0.5557
vn -0.8315 -0.0052 -0.5555
vn -0.7865 -0.0050 -0.6176
vn -0.9238 -0.0055 -0.3827
vn -0.9239 -0.0055 -0.3826
vn 0.9043 0.0042 -0.4270
vn -0.9808 -0.0055 -0.1951
vn -0.8849 -0.0054 -0.4658
vn -1.0000 -0.0053 0.0001
vn -1.0000 -0.0053 -0.0001
vn 0.9082 0.0043 -0.4185
vn -0.9807 -0.0050 0.1952
vn -0.9808 -0.0050 0.1949
vn -0.8130 -0.0051 -0.5823
vn -0.9238 -0.0044 0.3829
vn -0.9239 -0.0044 0.3825
vn -0.8819 -0.0054 -0.4714
vn 0.9269 0.0044 -0.3752
vn -0.8572 -0.0053 -0.5149
vn 0.9230 0.0044 -0.3847
vn 0.0016 0.0014 1.0000
vn -0.8819 -0.0041 0.4714
vn -0.0021 0.8190 0.5737
vn -0.3826 0.9238 -0.0119
vn -0.0084 0.8137 -0.5812
vn 0.6225 0.6674 -0.4089
vn -0.0078 0.9999 -0.0064
vn -0.0069 1.0000 -0.0062
vn -0.0079 1.0000 0.0000
vn -0.0077 1.0000 -0.0057
vn -0.0077 1.0000 -0.0056
usemtl Material
s 1
f 34/1/1 2/2/2 3/3/3 35/4/4
f 35/4/4 3/3/3 4/5/5 36/6/6
f 36/6/6 4/5/5 5/7/7 37/8/8
f 37/8/8 5/7/7 6/9/9 38/10/10
f 38/10/10 6/9/9 7/11/11 39/12/12
f 39/12/12 7/11/11 8/13/13 40/14/14
f 42/15/15 10/16/16 11/17/17 43/18/18
f 43/18/18 11/17/17 12/19/19 44/20/20
f 44/20/20 12/19/19 13/21/21 45/22/22
f 45/22/22 13/21/21 14/23/23 46/24/24
f 46/24/24 14/23/23 15/25/25 47/26/26
f 47/26/26 15/25/25 16/27/27 48/28/28
f 48/28/28 16/27/27 17/29/29 49/30/30
f 49/30/30 17/29/29 18/31/31 50/32/32
f 50/32/32 18/31/31 19/33/33 51/34/34
f 51/34/34 19/33/33 20/35/35 52/36/36
f 52/36/36 20/35/35 21/37/37 53/38/38
f 53/38/38 21/37/37 22/39/39 54/40/40
f 54/40/40 22/39/39 23/41/41 55/42/42
f 55/42/42 23/41/41 24/43/43 56/44/44
f 56/44/44 24/43/43 25/45/45 57/46/46
f 57/46/46 25/45/45 26/47/47 58/48/48
f 58/48/48 26/47/47 27/49/49 59/50/50
f 59/50/50 27/49/49 28/51/51 60/52/52
f 60/52/52 28/51/51 29/53/53 61/54/54
f 61/54/54 29/53/53 30/55/55 62/56/56
f 62/56/56 30/55/55 31/57/57 63/58/58
f 63/58/58 31/57/57 32/59/59 64/60/60
f 64/60/60 32/59/59 1/61/61 33/62/62
f 33/62/62 1/61/61 2/2/2 34/1/1
f 9/63/63 10/16/16 42/15/15 41/64/64
f 9/63/63 41/64/64 40/14/14 8/13/13
f 159/65/65 161/66/65 162/67/65 160/68/65
f 77/69/66 78/70/67 163/71/68
f 65/72/69 80/73/70 76/74/71
f 80/73/70 79/75/72 75/76/73
f 75/76/73 79/75/72 74/77/74
f 79/75/72 78/70/67 73/78/75
f 73/78/75 78/70/67 72/79/76
f 71/80/77 8/13/13 7/11/11
f 8/13/13 71/80/77 9/63/63
f 78/70/67 77/69/66 68/81/78
f 68/81/78 77/69/66 70/82/79
f 77/69/66 9/63/63 71/80/77
f 112/83/80 114/84/81 82/85/82 69/86/83
f 114/84/81 115/87/84 83/88/85 82/85/82
f 115/87/84 116/89/86 84/90/87 83/88/85
f 116/89/86 117/91/88 85/92/89 84/90/87
f 117/91/88 118/93/90 86/94/91 85/92/89
f 118/93/90 119/95/92 87/96/93 86/94/91
f 157/97/94 156/98/95 90/99/96
f 121/100/97 122/101/98 90/99/96 89/102/99
f 122/101/98 123/103/100 91/104/101 90/99/96
f 123/103/100 124/105/102 92/106/103 91/104/101
f 124/105/102 125/107/104 93/108/105 92/106/103
f 125/107/104 126/109/106 94/110/107 93/108/105
f 126/109/106 127/111/108 95/112/109 94/110/107
f 127/111/108 128/113/110 96/114/111 95/112/109
f 128/113/110 129/115/112 97/116/113 96/114/111
f 129/115/112 130/117/114 98/118/115 97/116/113
f 130/117/114 131/119/116 99/120/117 98/118/115
f 131/119/116 132/121/118 100/122/119 99/120/117
f 132/121/118 133/123/120 101/124/121 100/122/119
f 133/123/120 134/125/122 102/126/123 101/124/121
f 134/125/122 135/127/124 103/128/125 102/126/123
f 135/127/124 136/129/126 104/130/127 103/128/125
f 136/129/126 137/131/128 105/132/129 104/130/127
f 137/131/128 138/133/130 106/134/131 105/132/129
f 138/133/130 139/135/132 107/136/133 106/134/131
f 139/135/132 140/137/134 108/138/135 107/136/133
f 140/137/134 141/139/136 109/140/137 108/138/135
f 141/139/136 142/141/138 110/142/139 109/140/137
f 142/141/138 143/143/140 111/144/141 110/142/139
f 143/143/140 113/145/142 81/146/143 111/144/141
f 113/145/142 112/83/80 69/86/83 81/146/143
f 88/147/144 120/148/145 121/100/97 89/102/99
f 88/147/144 87/96/93 119/95/92 120/148/145
f 89/102/99 90/99/96 149/149/146
f 90/99/96 151/150/147 157/97/94
f 149/149/146 90/99/96 156/98/95
f 151/150/147 150/151/148 147/152/149
f 147/152/149 146/153/150 158/154/151
f 158/154/151 155/155/152 157/97/94
f 155/155/152 154/156/153 157/97/94
f 157/97/94 153/157/154 156/98/95
f 153/157/154 152/158/155 156/98/95
f 151/150/147 147/152/149 158/154/151
f 88/147/144 89/102/99 149/149/146
f 148/159/156 86/94/91 87/96/93
f 87/96/93 88/147/144 148/159/156
f 151/150/147 158/154/151 157/97/94
f 156/98/95 145/160/157 149/149/146
f 145/160/157 144/161/158 149/149/146
f 149/149/146 148/159/156 88/147/144
f 64/60/159 33/62/160 113/145/161 143/143/162
f 38/10/163 39/12/164 118/93/165 117/91/166
f 13/21/167 12/19/168 91/104/169 92/106/170
f 39/12/164 40/14/171 119/95/171 118/93/165
f 14/23/172 13/21/167 92/106/170 93/108/173
f 40/14/171 41/64/174 120/148/175 119/95/171
f 15/25/176 14/23/172 93/108/173 94/110/177
f 41/64/174 42/15/178 121/100/179 120/148/175
f 16/27/162 15/25/176 94/110/177 95/112/159
f 42/15/178 43/18/180 122/101/181 121/100/179
f 17/29/161 16/27/162 95/112/159 96/114/160
f 43/18/180 44/20/182 123/103/183 122/101/181
f 18/31/184 17/29/161 96/114/160 97/116/185
f 71/80/186 7/11/186 86/94/186 148/159/186
f 44/20/182 45/22/187 124/105/188 123/103/183
f 19/33/189 18/31/184 97/116/185 98/118/190
f 68/81/186 70/82/186 144/161/186 145/160/186
f 45/22/187 46/24/191 125/107/192 124/105/188
f 20/35/193 19/33/189 98/118/190 99/120/194
f 66/162/195 65/72/195 147/152/195 150/151/195
f 65/72/186 76/74/186 146/153/186 147/152/186
f 46/24/191 47/26/196 126/109/197 125/107/192
f 21/37/198 20/35/193 99/120/194 100/122/199
f 67/163/200 166/164/200 164/165/200 66/162/200 150/151/200 151/150/200
f 47/26/196 48/28/201 127/111/202 126/109/197
f 22/39/166 21/37/198 100/122/199 101/124/163
f 48/28/201 49/30/203 128/113/204 127/111/202
f 23/41/165 22/39/166 101/124/163 102/126/164
f 49/30/203 50/32/205 129/115/206 128/113/204
f 24/43/171 23/41/165 102/126/164 103/128/171
f 50/32/205 51/34/207 130/117/208 129/115/206
f 25/45/175 24/43/171 103/128/171 104/130/174
f 51/34/207 52/36/209 131/119/210 130/117/208
f 26/47/179 25/45/175 104/130/174 105/132/178
f 73/78/186 72/79/186 152/158/186 153/157/186
f 52/36/209 53/38/211 132/121/212 131/119/210
f 27/49/181 26/47/179 105/132/178 106/134/180
f 75/76/186 74/77/186 154/156/186 155/155/186
f 53/38/211 54/40/213 133/123/214 132/121/212
f 28/51/183 27/49/181 106/134/180 107/136/182
f 2/2/206 1/61/204 81/146/203 69/86/205
f 77/69/215 71/80/215 148/159/215 149/149/215
f 54/40/213 55/42/216 134/125/217 133/123/214
f 29/53/188 28/51/183 107/136/182 108/138/187
f 3/3/208 2/2/206 69/86/205 82/85/207
f 70/82/218 77/69/218 149/149/218 144/161/218
f 55/42/216 56/44/219 135/127/219 134/125/217
f 30/55/192 29/53/188 108/138/187 109/140/191
f 4/5/210 3/3/208 82/85/207 83/88/209
f 78/70/220 68/81/220 145/160/220 156/98/220
f 56/44/219 57/46/221 136/129/222 135/127/219
f 31/57/197 30/55/192 109/140/191 110/142/196
f 5/7/212 4/5/210 83/88/209 84/90/211
f 72/79/223 78/70/223 156/98/223 152/158/223
f 57/46/221 58/48/224 137/131/225 136/129/222
f 32/59/202 31/57/197 110/142/196 111/144/201
f 6/9/214 5/7/212 84/90/211 85/92/213
f 79/75/226 73/78/226 153/157/226 157/97/226
f 58/48/224 59/50/227 138/133/228 137/131/225
f 1/61/204 32/59/202 111/144/201 81/146/203
f 7/11/229 6/9/214 85/92/213 86/94/229
f 74/77/230 79/75/230 157/97/230 154/156/230
f 59/50/227 60/52/169 139/135/168 138/133/228
f 33/62/160 34/1/185 112/83/184 113/145/161
f 80/73/231 75/76/231 155/155/231 158/154/231
f 60/52/169 61/54/170 140/137/167 139/135/168
f 34/1/185 35/4/190 114/84/189 112/83/184
f 76/74/232 80/73/232 158/154/232 146/153/232
f 61/54/170 62/56/173 141/139/172 140/137/167
f 35/4/190 36/6/194 115/87/193 114/84/189
f 11/17/233 67/163/233 151/150/233 90/99/233
f 62/56/173 63/58/177 142/141/176 141/139/172
f 36/6/194 37/8/199 116/89/198 115/87/193
f 63/58/177 64/60/159 143/143/162 142/141/176
f 37/8/199 38/10/163 117/91/166 116/89/198
f 12/19/168 11/17/234 90/99/234 91/104/169
f 160/68/235 162/67/235 163/71/235 164/165/235
f 162/67/236 161/66/236 165/166/236 163/71/236
f 161/66/237 159/65/237 166/164/237 165/166/237
f 159/65/238 160/68/238 164/165/238 166/164/238
f 80/73/70 65/72/69 164/165/239
f 65/72/69 66/162/240 164/165/239
f 164/165/239 163/71/68 80/73/70
f 165/166/241 166/164/242 67/163/243
f 165/166/241 67/163/243 11/17/17
f 79/75/72 80/73/70 163/71/68
f 163/71/68 165/166/241 10/16/16
f 165/166/241 11/17/17 10/16/16
f 10/16/16 9/63/63 163/71/68
f 9/63/63 77/69/66 163/71/68
f 78/70/67 79/75/72 163/71/68
